<?xml version="1.0" standalone="no"?>
<!DOCTYPE svg PUBLIC "-//W3C//DTD SVG 20010904//EN"
 "http://www.w3.org/TR/2001/REC-SVG-20010904/DTD/svg10.dtd">
<svg version="1.0" xmlns="http://www.w3.org/2000/svg"
 width="512.000000pt" height="512.000000pt" viewBox="0 0 512.000000 512.000000"
 preserveAspectRatio="xMidYMid meet">

<g transform="translate(0.000000,512.000000) scale(0.100000,-0.100000)"
fill="#000000" stroke="none">
<path d="M1211 4624 c-169 -45 -301 -180 -346 -351 -23 -86 -23 -3340 0 -3426
45 -173 178 -307 350 -352 52 -13 223 -15 1345 -15 1122 0 1293 2 1345 15 172
45 305 179 350 352 23 86 23 3340 0 3426 -45 173 -178 307 -350 352 -86 22
-2610 22 -2694 -1z m2665 -330 c15 -11 37 -33 48 -48 l21 -27 0 -1659 0 -1659
-21 -27 c-11 -15 -33 -37 -48 -48 -27 -21 -30 -21 -1316 -21 -1286 0 -1289 0
-1316 21 -15 11 -37 33 -48 48 -21 27 -21 29 -24 1659 -1 898 0 1646 3 1664 7
40 49 91 90 109 24 11 261 13 1307 11 1272 -2 1277 -2 1304 -23z"/>
<path d="M1548 3930 c-112 -60 -109 -224 6 -280 43 -20 53 -20 553 -18 l510 3
37 29 c90 68 86 190 -8 260 -27 21 -40 21 -544 23 -495 2 -519 2 -554 -17z"/>
<path d="M1543 3310 c-37 -22 -60 -54 -73 -101 -21 -73 35 -166 115 -188 56
-15 1894 -15 1950 0 80 22 136 115 115 188 -13 47 -36 79 -73 101 -31 19 -58
20 -1017 20 -959 0 -986 -1 -1017 -20z"/>
<path d="M1548 2700 c-112 -59 -109 -224 6 -279 42 -21 52 -21 1007 -21 918 0
966 1 1005 19 115 52 118 216 6 279 l-40 22 -973 0 c-942 -1 -975 -2 -1011
-20z"/>
<path d="M1575 2095 c-128 -45 -147 -215 -32 -285 31 -19 58 -20 1017 -20 959
0 986 1 1017 20 37 22 60 54 73 101 21 73 -35 166 -115 188 -28 8 -327 11
-980 11 -784 -1 -947 -3 -980 -15z"/>
<path d="M1554 1471 c-115 -52 -118 -216 -6 -279 l40 -22 971 0 c947 0 973 1
1010 20 114 58 113 223 -3 279 -42 21 -52 21 -1007 21 -918 0 -966 -1 -1005
-19z"/>
</g>
</svg>
